<svg width="800" height="600" xmlns="http://www.w3.org/2000/svg">
 <!-- Created with Method Draw - http://github.com/duopixel/Method-Draw/ -->
 <g>
  <title>background</title>
  <rect fill="#fff" id="canvas_background" height="602" width="802" y="-1" x="-1"/>
  <g display="none" overflow="visible" y="0" x="0" height="100%" width="100%" id="canvasGrid">
   <rect fill="url(#gridpattern)" stroke-width="0" y="0" x="0" height="100%" width="100%"/>
  </g>
 </g>
 <g>
  <title>Layer 1</title>
  <path id="svg_5" d="m179.72187,276.81097c1.76921,-5.03353 4.19077,-9.2964 6.48777,-11.42096c2.46087,-2.27612 1.36906,-3.26343 -1.16952,-1.05759c-1.06801,0.92801 -1.37316,0.25417 -1.37316,-3.0323c0,-7.84126 4.67793,-12.6932 15.93328,-16.52595c9.5237,-3.24309 16.54509,-6.89016 19.45631,-10.10605l2.37229,-2.62057l0,4.55953c0,5.63793 -2.01303,14.15546 -4.24127,17.94568c-2.36376,4.02076 -10.46585,11.44249 -14.44167,13.22898c-3.56199,1.60054 -11.16925,2.07173 -15.23497,0.94365c-2.02612,-0.56216 -2.66914,-0.13264 -3.71897,2.48415c-0.69811,1.7401 -1.26929,4.21565 -1.26929,5.50122c0,1.45947 -0.67366,2.33739 -1.79356,2.33739c-1.33011,0 -1.59037,-0.57808 -1.00723,-2.23719l0,0z" stroke-width="1.5" fill="#e0c218"/>
  <path id="svg_6" d="m226.23202,199.02296c1.22173,-3.21325 2.89393,-5.93455 4.48013,-7.2908c1.69935,-1.45301 0.94541,-2.08327 -0.80761,-0.67513c-0.73752,0.59242 -0.94824,0.16226 -0.94824,-1.93573c0,-5.00562 3.23034,-8.10296 11.00272,-10.54967c6.57659,-2.07029 11.42521,-4.39847 13.43555,-6.4514l1.63818,-1.67289l0,2.91067c0,3.59908 -1.3901,9.03642 -2.9288,11.45599c-1.6323,2.56673 -7.22719,7.30454 -9.97269,8.44498c-2.45973,1.02174 -7.71292,1.32253 -10.52051,0.6024c-1.39914,-0.35887 -1.84318,-0.08467 -2.56814,1.58581c-0.48208,1.11083 -0.87651,2.69115 -0.87651,3.51181c0,0.93168 -0.46519,1.49212 -1.23854,1.49212c-0.91851,0 -1.09823,-0.36903 -0.69554,-1.42815l0,0z" stroke-width="1.5" fill="#0e6b22"/>
  <path id="svg_7" d="m314.72187,225.81097c1.76921,-5.03353 4.19077,-9.2964 6.48777,-11.42096c2.46087,-2.27612 1.36906,-3.26343 -1.16952,-1.05759c-1.06801,0.92801 -1.37316,0.25417 -1.37316,-3.0323c0,-7.84126 4.67793,-12.6932 15.93328,-16.52595c9.5237,-3.24309 16.54509,-6.89016 19.45631,-10.10605l2.37229,-2.62057l0,4.55953c0,5.63793 -2.01303,14.15546 -4.24127,17.94568c-2.36376,4.02076 -10.46585,11.44249 -14.44167,13.22898c-3.56199,1.60054 -11.16925,2.07173 -15.23497,0.94365c-2.02612,-0.56216 -2.66914,-0.13264 -3.71897,2.48415c-0.69811,1.7401 -1.26929,4.21565 -1.26929,5.50122c0,1.45947 -0.67366,2.33739 -1.79356,2.33739c-1.33011,0 -1.59037,-0.57808 -1.00723,-2.23719l0,0z" stroke-width="1.5" fill="#e0c218"/>
  <path id="svg_8" d="m199.23202,338.02296c1.22173,-3.21325 2.89393,-5.93455 4.48013,-7.2908c1.69935,-1.45301 0.94541,-2.08327 -0.80761,-0.67513c-0.73752,0.59242 -0.94824,0.16226 -0.94824,-1.93573c0,-5.00562 3.23034,-8.10296 11.00272,-10.54967c6.57659,-2.07029 11.42521,-4.39847 13.43555,-6.4514l1.63818,-1.67289l0,2.91067c0,3.59908 -1.3901,9.03642 -2.9288,11.45599c-1.6323,2.56673 -7.22719,7.30454 -9.97269,8.44498c-2.45973,1.02174 -7.71292,1.32253 -10.52051,0.6024c-1.39914,-0.35887 -1.84318,-0.08467 -2.56814,1.58581c-0.48208,1.11083 -0.87651,2.69115 -0.87651,3.51181c0,0.93168 -0.46519,1.49212 -1.23854,1.49212c-0.91851,0 -1.09823,-0.36903 -0.69554,-1.42815l0,0z" stroke-width="1.5" fill="#0e6b22"/>
  <path id="svg_9" d="m358.23202,265.02296c1.22173,-3.21325 2.89393,-5.93455 4.48013,-7.2908c1.69935,-1.45301 0.94541,-2.08327 -0.80761,-0.67513c-0.73752,0.59242 -0.94824,0.16226 -0.94824,-1.93573c0,-5.00562 3.23034,-8.10296 11.00272,-10.54967c6.57659,-2.07029 11.42521,-4.39847 13.43555,-6.4514l1.63818,-1.67289l0,2.91067c0,3.59908 -1.3901,9.03642 -2.9288,11.45599c-1.6323,2.56673 -7.22719,7.30454 -9.97269,8.44498c-2.45973,1.02174 -7.71292,1.32253 -10.52051,0.6024c-1.39914,-0.35887 -1.84318,-0.08467 -2.56814,1.58581c-0.48208,1.11083 -0.87651,2.69115 -0.87651,3.51181c0,0.93168 -0.46519,1.49212 -1.23854,1.49212c-0.91851,0 -1.09823,-0.36903 -0.69554,-1.42815l0,0z" stroke-width="1.5" fill="#0e6b22"/>
  <path id="svg_10" d="m289.72187,329.81097c1.76921,-5.03353 4.19077,-9.2964 6.48777,-11.42096c2.46087,-2.27612 1.36906,-3.26343 -1.16952,-1.05759c-1.06801,0.92801 -1.37316,0.25417 -1.37316,-3.0323c0,-7.84126 4.67793,-12.6932 15.93328,-16.52595c9.5237,-3.24309 16.54509,-6.89016 19.45631,-10.10605l2.37229,-2.62057l0,4.55953c0,5.63793 -2.01303,14.15546 -4.24127,17.94568c-2.36376,4.02076 -10.46585,11.44249 -14.44167,13.22898c-3.56199,1.60054 -11.16925,2.07173 -15.23497,0.94365c-2.02612,-0.56216 -2.66914,-0.13264 -3.71897,2.48415c-0.69811,1.7401 -1.26929,4.21565 -1.26929,5.50122c0,1.45947 -0.67366,2.33739 -1.79356,2.33739c-1.33011,0 -1.59037,-0.57808 -1.00723,-2.23719l0,0z" stroke-width="1.5" fill="#e0c218"/>
  <path id="svg_11" d="m253.23202,273.02296c1.22173,-3.21325 2.89393,-5.93455 4.48013,-7.2908c1.69935,-1.45301 0.94541,-2.08327 -0.80761,-0.67513c-0.73752,0.59242 -0.94824,0.16226 -0.94824,-1.93573c0,-5.00562 3.23034,-8.10296 11.00272,-10.54967c6.57659,-2.07029 11.42521,-4.39847 13.43555,-6.4514l1.63818,-1.67289l0,2.91067c0,3.59908 -1.3901,9.03642 -2.9288,11.45599c-1.6323,2.56673 -7.22719,7.30454 -9.97269,8.44498c-2.45973,1.02174 -7.71292,1.32253 -10.52051,0.6024c-1.39914,-0.35887 -1.84318,-0.08467 -2.56814,1.58581c-0.48208,1.11083 -0.87651,2.69115 -0.87651,3.51181c0,0.93168 -0.46519,1.49212 -1.23854,1.49212c-0.91851,0 -1.09823,-0.36903 -0.69554,-1.42815l0,0z" stroke-width="1.5" fill="#0e6b22"/>
 </g>
</svg>